<?xml version="1.0" standalone="no"?>
<!DOCTYPE svg PUBLIC "-//W3C//DTD SVG 20010904//EN"
 "http://www.w3.org/TR/2001/REC-SVG-20010904/DTD/svg10.dtd">
<svg version="1.0" xmlns="http://www.w3.org/2000/svg"
 width="360.000000pt" height="360.000000pt" viewBox="0 0 360.000000 360.000000"
 preserveAspectRatio="xMidYMid meet">
<metadata>
Created by potrace 1.14, written by Peter Selinger 2001-2017
</metadata>
<g transform="translate(0.000000,360.000000) scale(0.100000,-0.100000)"
fill="#000000" stroke="none">
<path d="M2434 3436 c-136 -50 -279 -160 -363 -281 -142 -202 -179 -481 -95
-713 13 -36 28 -70 34 -76 20 -20 148 37 248 111 159 118 262 276 306 468 30
137 10 339 -47 465 l-22 48 -61 -22z"/>
<path d="M1067 3378 c-39 -111 -50 -173 -49 -279 2 -305 186 -585 462 -706 41
-18 82 -33 91 -33 22 0 63 102 83 206 18 95 14 234 -9 325 -66 252 -225 435
-468 538 -77 33 -82 31 -110 -51z"/>
<path d="M375 2584 c-73 -13 -161 -41 -213 -68 -29 -15 -30 -17 -20 -53 26
-96 118 -242 200 -319 215 -202 507 -269 789 -180 43 13 129 53 129 59 0 12
-41 112 -64 157 -153 295 -496 464 -821 404z"/>
<path d="M2950 2585 c-264 -52 -483 -229 -584 -472 -35 -85 -34 -95 17 -117
260 -115 566 -86 782 74 83 61 150 131 197 205 44 68 98 189 98 218 0 17 -93
57 -189 82 -81 21 -239 26 -321 10z"/>
<path d="M2718 1665 c-2 -1 -37 -5 -78 -8 -122 -10 -290 -66 -290 -97 0 -24
79 -171 118 -220 133 -167 307 -268 507 -297 62 -9 208 -8 255 1 97 19 220 68
220 87 0 14 -79 181 -89 189 -4 3 -15 16 -24 30 -78 113 -248 234 -389 277
-47 14 -224 43 -230 38z"/>
<path d="M693 1636 c-104 -28 -152 -50 -234 -103 -127 -82 -233 -208 -290
-342 -31 -74 -32 -73 50 -105 193 -75 423 -69 613 18 129 59 260 173 332 290
43 69 93 174 85 179 -20 13 -96 43 -149 59 -102 32 -300 33 -407 4z"/>
<path d="M1499 1246 c-243 -99 -434 -340 -474 -597 -21 -132 0 -301 56 -434
31 -75 32 -77 62 -71 36 7 135 57 191 96 168 116 298 326 324 525 14 103 5
251 -19 325 -22 70 -70 180 -78 180 -3 0 -31 -11 -62 -24z"/>
<path d="M2012 1227 c-161 -323 -78 -717 201 -946 69 -58 184 -123 239 -136
24 -6 29 -2 47 32 27 54 61 158 69 212 14 90 7 253 -12 326 -18 65 -77 205
-98 229 -5 6 -19 25 -31 42 -68 94 -168 179 -277 234 -115 57 -113 57 -138 7z"/>
</g>
</svg>
